<?xml version="1.0" encoding="UTF-8"?>
<svg version="1.1" xmlns="http://www.w3.org/2000/svg" width="512" height="512">
<path d="M0 0 C4.50647466 3.32531354 8.1271352 7.42720099 11.75048828 11.67089844 C14.65387641 14.9643518 17.89255205 17.8608083 21.14111328 20.80712891 C22.38247386 21.96147063 23.6220625 23.11772083 24.85986328 24.27587891 C25.47216797 24.84693359 26.08447266 25.41798828 26.71533203 26.00634766 C29.22947493 28.35182688 31.74228508 30.69872979 34.25439453 33.04638672 C35.50283647 34.21146996 36.7528152 35.37490883 38.00439453 36.53662109 C41.17755933 39.48432418 44.32064051 42.45608507 47.42236328 45.47900391 C48.0468335 46.07962646 48.67130371 46.68024902 49.31469727 47.29907227 C50.49832349 48.43839755 51.672974 49.58715166 52.83666992 50.74682617 C56.2867633 54.04309704 58.75568498 55.6357899 63.57861328 55.74462891 C69.03138051 53.14217182 72.87699237 48.54420606 77.05908203 44.26806641 C79.83192224 41.49092722 82.73573163 38.93883825 85.71533203 36.38916016 C88.1935438 34.20189149 90.48225495 31.85183011 92.79736328 29.49462891 C95.29757513 27.03828042 97.95541844 24.78153523 100.60986328 22.49462891 C102.50884399 20.80664605 104.29867317 19.05693157 106.07861328 17.24462891 C109.1092554 14.1588842 112.30845718 11.33686431 115.58642578 8.51806641 C118.22429222 6.16984805 120.6829031 3.66901667 123.13330078 1.12744141 C125.89028449 -1.51032139 128.01504232 -1.36516047 131.70361328 -1.31787109 C132.61369141 -1.30884766 133.52376953 -1.29982422 134.46142578 -1.29052734 C135.50943359 -1.273125 135.50943359 -1.273125 136.57861328 -1.25537109 C138.20468963 11.51154633 139.73521221 24.2571416 140.32861328 37.11962891 C140.37300537 38.03309082 140.41739746 38.94655273 140.46313477 39.88769531 C140.75382425 47.36317697 140.75382425 47.36317697 139.57861328 50.74462891 C137.46923828 52.16650391 137.46923828 52.16650391 134.82861328 53.49462891 C128.66659376 56.95911198 125.78778537 61.11711265 123.57861328 67.74462891 C122.93913631 75.40786928 122.6519948 82.48686281 127.57861328 88.74462891 C132.27255872 93.68356106 136.6310613 97.25312506 143.55908203 98.11572266 C151.26546476 98.27529453 157.3651194 97.5873339 163.57861328 92.74462891 C168.27003038 87.52652465 171.52378767 81.5066248 171.60595703 74.36962891 C171.14262031 66.57606763 168.97776183 60.61050337 163.07861328 55.36962891 C160.70408789 53.4376287 158.32286538 52.0862475 155.57861328 50.74462891 C155.55879395 50.02621826 155.53897461 49.30780762 155.51855469 48.56762695 C155.15246485 35.88696255 154.77432117 23.26075082 153.23925781 10.65942383 C152.75214032 6.65796999 152.4836773 2.77624366 152.57861328 -1.25537109 C155.01805063 -0.63726028 157.45496857 -0.01121849 159.89111328 0.61962891 C160.92655273 0.88066406 160.92655273 0.88066406 161.98291016 1.14697266 C165.2973689 2.01161407 167.70139881 2.82648592 170.57861328 4.74462891 C170.96337891 7.2722168 170.96337891 7.2722168 170.98486328 10.46728516 C171.00452148 11.63743164 171.02417969 12.80757813 171.04443359 14.01318359 C171.06135254 15.89118652 171.06135254 15.89118652 171.07861328 17.80712891 C171.68578305 44.18231662 176.87072882 72.15098886 196.39501953 91.54931641 C201.65295476 96.29622121 205.88264534 98.02460046 213.07861328 97.93212891 C214.18205078 97.92568359 215.28548828 97.91923828 216.42236328 97.91259766 C219.25759318 97.7617129 221.81024301 97.33311304 224.57861328 96.74462891 C224.64811726 108.52316377 224.70142668 120.30164986 224.7340498 132.08034801 C224.74970709 137.54965139 224.77094673 143.01881447 224.80493164 148.48803711 C224.83752251 153.76593213 224.85546582 159.04369219 224.86324501 164.32168007 C224.86878898 166.33552487 224.87961495 168.34936228 224.89580345 170.36314964 C224.91757393 173.18342438 224.92058035 176.00314111 224.91918945 178.82348633 C224.93536819 180.07289757 224.93536819 180.07289757 224.95187378 181.34754944 C224.92721174 185.96757236 224.58063106 188.99157112 221.57861328 192.74462891 C219.03884588 194.01451261 217.27154063 193.87468986 214.42701244 193.8816433 C213.32884423 193.88671784 212.23067603 193.89179238 211.09922999 193.8970207 C209.27461134 193.89776733 209.27461134 193.89776733 207.41313171 193.89852905 C206.1286317 193.90291131 204.84413169 193.90729356 203.52070743 193.91180861 C199.94338434 193.92379316 196.36607475 193.92942689 192.78873551 193.93398976 C188.9351876 193.93993866 185.08165589 193.9515502 181.2281189 193.96228027 C171.91628586 193.98681942 162.60444745 194.00143301 153.29259202 194.01434034 C150.66376911 194.01805097 148.03494673 194.0220243 145.40612435 194.02609301 C129.09099207 194.05132661 112.77585897 194.07338563 96.46071148 194.08582115 C92.68043197 194.08875098 88.90015249 194.09171262 85.11987305 194.09472656 C84.18027195 194.09547261 83.24067085 194.09621866 82.27259699 194.09698732 C67.04414186 194.1096469 51.81580332 194.14287726 36.58740272 194.1845284 C20.962633 194.22691435 5.33792304 194.25051226 -10.28690404 194.25574172 C-19.06373269 194.25915948 -27.84037909 194.2709576 -36.61715126 194.30384445 C-44.09028812 194.33180024 -51.56320537 194.34286403 -59.03639046 194.33164899 C-62.85077621 194.3264509 -66.66470174 194.32942277 -70.47902107 194.35411453 C-74.61132065 194.38064199 -78.74260074 194.36858616 -82.87495422 194.35263062 C-84.08467449 194.3665127 -85.29439476 194.38039479 -86.54077321 194.39469755 C-94.59289469 194.317729 -94.59289469 194.317729 -98.66627693 191.5000124 C-100.46528021 188.67571961 -101.04713004 187.34829744 -101.04957581 184.05049133 C-101.06222977 183.13565979 -101.07488373 182.22082825 -101.08792114 181.27827454 C-101.07038284 179.79075935 -101.07038284 179.79075935 -101.05249023 178.27319336 C-101.05964554 177.21873016 -101.06680084 176.16426697 -101.07417297 175.07785034 C-101.0910933 171.58743056 -101.07161914 168.09829051 -101.05029297 164.60791016 C-101.05112215 162.16952916 -101.05358341 159.73114822 -101.05760193 157.29277039 C-101.06046329 152.17230471 -101.04573913 147.05227554 -101.01831055 141.93188477 C-100.98446274 135.41491827 -100.99016463 128.89874431 -101.00897312 122.38174152 C-101.0196287 117.33773893 -101.01052426 112.29391546 -100.9955883 107.24992943 C-100.99045264 104.85052208 -100.9908313 102.45109563 -100.99713326 100.05169106 C-101.04601756 70.21851807 -95.02152531 44.5918279 -73.42138672 22.74462891 C-61.35856906 11.00023967 -61.35856906 11.00023967 -55.42138672 8.74462891 C-50.61847444 9.42046084 -47.78107739 12.08491259 -44.75732422 15.77587891 C-37.90077184 25.07904249 -32.20916521 36.21446199 -30.42138672 47.74462891 C-30.75138672 48.73462891 -31.08138672 49.72462891 -31.42138672 50.74462891 C-33.46044922 51.70166016 -33.46044922 51.70166016 -36.04638672 52.55712891 C-44.35319811 55.71655717 -48.57186048 60.38526682 -53.15966797 67.88916016 C-56.38621751 75.19135123 -56.76202592 82.60439669 -56.73388672 90.49462891 C-56.75 91.41373047 -56.76611328 92.33283203 -56.78271484 93.27978516 C-56.78628913 98.2194446 -56.73111401 101.78261959 -53.42138672 105.74462891 C-48.9800807 107.96528192 -43.24419863 107.25731349 -38.42138672 106.74462891 C-34.86860795 105.02965861 -34.86860795 105.02965861 -33.42138672 101.74462891 C-33.3414015 98.85982857 -33.79143992 96.60361823 -34.42138672 93.74462891 C-36.73138672 93.08462891 -39.04138672 92.42462891 -41.42138672 91.74462891 C-41.84181707 83.27373593 -41.59642107 76.71342185 -36.17138672 69.93212891 C-31.4475254 66.17451195 -27.4678408 64.43267225 -21.42138672 64.74462891 C-16.4386346 65.44994998 -12.91607181 67.10392633 -9.42138672 70.74462891 C-6.19177284 76.0196649 -5.28612364 80.38253015 -5.35888672 86.49462891 C-5.36791016 87.47947266 -5.37693359 88.46431641 -5.38623047 89.47900391 C-5.39783203 90.22666016 -5.40943359 90.97431641 -5.42138672 91.74462891 C-8.88638672 92.73462891 -8.88638672 92.73462891 -12.42138672 93.74462891 C-13.75113779 99.44821327 -13.75113779 99.44821327 -11.79638672 104.74462891 C-6.63810116 107.80139072 -1.28070415 107.64260859 4.57861328 106.74462891 C7.72030827 104.94038337 8.41393966 104.23864977 9.57861328 100.74462891 C10.62522195 87.14505929 10.68666201 73.28336801 2.45361328 61.81884766 C-1.43348279 57.51874763 -6.45569835 53.53232262 -12.11279297 52.02978516 C-14.42138672 50.74462891 -14.42138672 50.74462891 -15.53857422 47.39306641 C-15.80676436 45.97143924 -16.05832086 44.54660978 -16.29638672 43.11962891 C-19.2629192 28.4093301 -25.40520354 16.37993128 -34.85888672 4.74462891 C-36.42138672 2.74462891 -36.42138672 2.74462891 -36.42138672 0.74462891 C-10.01937157 -5.19455622 -10.01937157 -5.19455622 0 0 Z " fill="#000000" transform="translate(151.42138671875,267.25537109375)"/>
<path d="M0 0 C1.80017578 0.04060547 1.80017578 0.04060547 3.63671875 0.08203125 C4.51972656 0.11683594 5.40273437 0.15164062 6.3125 0.1875 C6.74949219 1.14849609 6.74949219 1.14849609 7.1953125 2.12890625 C12.23645336 12.76603051 17.44376758 18.29492861 28.3125 23.1875 C37.45107635 26.14990687 46.88113369 24.24309392 55.3125 20.1875 C63.51742405 15.89569358 67.36788008 8.25076719 71.3125 0.1875 C73.33116952 0.04753062 75.35300201 -0.04662798 77.375 -0.125 C79.06302734 -0.21201172 79.06302734 -0.21201172 80.78515625 -0.30078125 C93.29226977 0.34851149 105.68027745 7.47576118 116.6875 12.9375 C118.10377008 13.62971824 119.52043553 14.32112817 120.9375 15.01171875 C122.27899431 15.6685596 123.62015403 16.32608435 124.9609375 16.984375 C125.58680756 17.29163513 126.21267761 17.59889526 126.85751343 17.91546631 C131.19342582 20.06842582 131.19342582 20.06842582 132.3125 21.1875 C132.90586705 28.03364479 131.95270884 34.43620882 130.3125 41.0625 C130.09102295 41.96379639 129.8695459 42.86509277 129.64135742 43.79370117 C122.24771283 72.45249567 105.41468533 101.7167157 79.3125 117.1875 C60.82516996 127.77098979 39.81191588 132.07566627 18.8125 126.6875 C7.37438325 122.73513487 -3.60549841 117.23821203 -12.6875 109.1875 C-13.55632812 108.46046875 -14.42515625 107.7334375 -15.3203125 106.984375 C-39.17932196 86.38188772 -51.6006694 55.86969036 -55.6875 25.1875 C-55.6875 23.8675 -55.6875 22.5475 -55.6875 21.1875 C-50.62568437 18.66637291 -45.55762336 16.15841882 -40.48364258 13.66186523 C-38.76251443 12.8128183 -37.04306965 11.96034928 -35.32543945 11.10424805 C-12.29925186 -0.36532431 -12.29925186 -0.36532431 0 0 Z " fill="#000000" transform="translate(174.6875,127.8125)"/>
<path d="M0 0 C11.76396905 4.35907467 19.99161682 3.27042667 31.54101562 -1.15356445 C42.67655888 -5.11437412 52.89855197 -8.15816023 64.29101562 -3.09106445 C73.48135217 2.38661958 79.36219499 10.41943775 82.34887695 20.78198242 C85.85986006 37.17561749 80.41265154 53.12964317 73.52148438 67.77026367 C73.01488281 68.84824219 73.01488281 68.84824219 72.49804688 69.94799805 C72.0413562 70.89666748 72.0413562 70.89666748 71.57543945 71.86450195 C69.99733516 75.85175705 69.67394449 79.62658238 69.76367188 83.8815918 C69.7775293 84.84581055 69.79138672 85.8100293 69.80566406 86.8034668 C69.82935059 88.34067383 69.82935059 88.34067383 69.85351562 89.90893555 C70.01579741 115.44127025 67.64212499 142.8890006 49.79101562 162.84643555 C49.33210938 163.3981543 48.87320313 163.94987305 48.40039062 164.51831055 C45.75769417 166.69917655 43.25028342 166.31455689 39.95117188 166.2019043 C37.79101562 165.84643555 37.79101562 165.84643555 35.29101562 164.09643555 C32.8605732 160.45077192 32.6665651 157.11869055 32.58007812 152.8034668 C32.26266661 125.24092314 32.26266661 125.24092314 20.79101562 100.84643555 C17.87747021 99.08297385 16.19302329 98.83806039 12.79101562 98.90893555 C7.86759911 100.44750321 5.86958502 102.87812641 3.47460938 107.2487793 C-2.84134621 120.9930528 -3.58806721 135.47888742 -3.74316406 150.38037109 C-3.76282227 151.40557861 -3.78248047 152.43078613 -3.80273438 153.48706055 C-3.80982422 154.40003906 -3.81691406 155.31301758 -3.82421875 156.25366211 C-4.42864325 160.32662416 -6.33826027 162.97571144 -9.20898438 165.84643555 C-12.33612795 166.62344475 -15.07396056 166.57069847 -18.20898438 165.84643555 C-30.91269035 157.02294102 -36.67947477 136.39681104 -39.45898438 122.09643555 C-41.0330345 111.15233235 -41.32444015 99.935875 -41.12084961 88.89379883 C-40.95467189 79.10141896 -42.80917691 71.93912048 -46.77294922 63.06787109 C-53.27229672 48.51129911 -57.83101459 32.50643439 -52.58398438 16.72143555 C-48.79121893 8.03134489 -42.42062982 -0.00630161 -33.64648438 -4.02856445 C-21.57968332 -7.7466903 -11.34594253 -4.33173711 0 0 Z " fill="#000000" transform="translate(378.208984375,184.153564453125)"/>
<path d="M0 0 C16.99718537 14.2187993 27.50841385 33.32613411 30.875 55.25 C30.91749178 56.91612491 30.93415274 58.58438338 30.875 60.25 C26.77997958 58.95799226 22.96061421 57.43363679 19.09375 55.5703125 C-0.21702139 46.06213453 -0.21702139 46.06213453 -21.11523438 41.83911133 C-29.25338301 41.22519122 -29.25338301 41.22519122 -32.26171875 37.859375 C-33.75870712 35.03885284 -34.97807606 32.22767424 -36.125 29.25 C-40.4239426 22.3409851 -48.44986514 18.36896217 -56.125 16.25 C-67.35821624 15.02403985 -76.47050119 17.43067301 -85.3046875 24.4765625 C-89.08878145 28.16321197 -92.57759392 32.71269885 -93.703125 37.9296875 C-95.125 40.25 -95.125 40.25 -96.96142578 40.86206055 C-99.47200833 41.28756055 -101.9648254 41.57378648 -104.5 41.8125 C-117.99568296 43.20327649 -129.16494192 47.98391529 -141.25 54 C-143.6460545 55.18726274 -146.04503748 56.36812079 -148.4453125 57.546875 C-149.48961426 58.06604492 -150.53391602 58.58521484 -151.60986328 59.12011719 C-154.125 60.25 -154.125 60.25 -156.125 60.25 C-156.76687328 39.46935257 -145.31312556 19.84094422 -131.5 5.125 C-96.77379572 -28.2777971 -37.53765793 -28.56126147 0 0 Z " fill="#000000" transform="translate(276.125,70.75)"/>
<path d="M0 0 C1.11375 0.53109375 2.2275 1.0621875 3.375 1.609375 C28.18096653 13.19626442 52.13918996 16.27757905 78.34375 7.37890625 C82.47875401 5.81944427 86.33641592 3.99599505 90.1796875 1.8203125 C90.78039062 1.54960937 91.38109375 1.27890625 92 1 C92.99 1.495 92.99 1.495 94 2 C88.59693843 7.49245046 83.21417432 12.92745403 77.3515625 17.93359375 C74.04164556 20.84214203 70.83910264 23.86135702 67.625 26.875 C66.31918991 28.09524419 65.01320255 29.31529871 63.70703125 30.53515625 C61.93807052 32.18730309 60.16983005 33.84006498 58.40771484 35.49951172 C57.04897883 36.77727853 55.68108691 38.0452899 54.3125 39.3125 C53.56613281 40.00988281 52.81976563 40.70726562 52.05078125 41.42578125 C49.87959384 43.09242606 48.69804446 43.69367042 46 44 C44.32763672 42.97119141 44.32763672 42.97119141 42.6796875 41.3515625 C42.06714111 40.76286377 41.45459473 40.17416504 40.82348633 39.56762695 C40.18048584 38.92656006 39.53748535 38.28549316 38.875 37.625 C37.52277769 36.31834542 36.16991293 35.01235537 34.81640625 33.70703125 C34.16043457 33.06717285 33.50446289 32.42731445 32.82861328 31.76806641 C30.54147554 29.55665766 28.18952852 27.4267026 25.8125 25.3125 C21.64647325 21.58937311 17.52357637 17.82228492 13.41625977 14.03466797 C9.53001204 10.45934539 5.56462417 6.98507841 1.546875 3.55859375 C0 2 0 2 0 0 Z " fill="#000000" transform="translate(166,259)"/>
</svg>
