<?xml version="1.0" encoding="UTF-8"?>
<svg version="1.1" xmlns="http://www.w3.org/2000/svg" width="512" height="512">
<path d="M0 0 C0.81322236 -0.00623996 1.62644471 -0.01247993 2.46431017 -0.01890898 C5.19293121 -0.03488091 7.92066412 -0.02221856 10.64929199 -0.00964355 C12.60396344 -0.01506281 14.5586308 -0.02218436 16.51329041 -0.03088379 C21.82523774 -0.04914337 27.13687487 -0.04203868 32.44882774 -0.02936745 C38.00300316 -0.01925345 43.55715169 -0.02862867 49.11132812 -0.03491211 C58.43929828 -0.04219318 67.76714183 -0.03258872 77.09509277 -0.0135498 C87.88563511 0.00821976 98.67587515 0.00116872 109.46641016 -0.02085543 C118.72425252 -0.0389963 127.98200377 -0.04157416 137.23985815 -0.03110075 C142.77210287 -0.02485861 148.30420541 -0.02405 153.83644104 -0.0372467 C159.0370864 -0.04878545 164.23734132 -0.04081553 169.43794441 -0.01766968 C171.348754 -0.01237203 173.25959635 -0.01391434 175.17039299 -0.02272034 C177.77476768 -0.03361784 180.37788371 -0.01998309 182.98217773 0 C183.7420966 -0.00892289 184.50201547 -0.01784577 185.28496218 -0.02703905 C188.67065248 0.02350689 190.66223685 0.27654512 193.46158218 2.24624252 C195.21334284 4.83658304 195.48613182 6.10344096 195.47210693 9.20294189 C195.47761692 10.14046673 195.48312691 11.07799156 195.48880386 12.04392624 C195.46721521 13.58216993 195.46721521 13.58216993 195.44519043 15.15148926 C195.44567257 16.25222401 195.44615471 17.35295876 195.44665146 18.4870491 C195.44366484 22.05163102 195.41319953 25.61537724 195.38171387 29.17980957 C195.37583306 31.37983803 195.37175214 33.57987206 195.36950684 35.77990723 C195.34853144 43.939335 195.2926866 52.09864298 195.24108887 60.25793457 C195.15858887 78.49043457 195.07608887 96.72293457 194.99108887 115.50793457 C126.68108887 115.50793457 58.37108887 115.50793457 -12.00891113 115.50793457 C-12.09141113 97.27543457 -12.17391113 79.04293457 -12.25891113 60.25793457 C-12.29532715 54.49937012 -12.33174316 48.74080566 -12.3692627 42.80773926 C-12.3873291 35.77990723 -12.3873291 35.77990723 -12.39068604 32.49066162 C-12.39683145 30.19163926 -12.41090617 27.89262985 -12.43121338 25.59368896 C-12.46042663 22.11272761 -12.46453746 18.63255454 -12.4630127 15.15148926 C-12.47740513 14.12599346 -12.49179756 13.10049767 -12.50662613 12.04392624 C-12.50111614 11.10640141 -12.49560616 10.16887657 -12.4899292 9.20294189 C-12.49361637 8.3880769 -12.49730354 7.5732119 -12.50110245 6.73365402 C-11.02719197 0.06854001 -5.84454967 -0.06862608 0 0 Z M72.39343262 42.73059082 C68.12393374 48.14179413 66.68721761 53.68553462 66.99108887 60.50793457 C68.56774042 68.10927448 71.71305978 73.87225908 77.99108887 78.50793457 C84.59792512 82.11166344 90.72594002 83.31031453 97.99108887 81.50793457 C104.99867618 79.13613579 110.96677995 74.1925919 114.29968262 67.51184082 C116.85708483 60.09970898 116.44781905 53.71839979 113.14733887 46.66027832 C109.75699061 40.34919085 105.40333712 37.44311863 98.99108887 34.50793457 C88.82043877 31.47959493 79.33455471 35.00553023 72.39343262 42.73059082 Z " fill="#000000" transform="translate(290.0089111328125,264.4920654296875)"/>
<path d="M0 0 C-1.35789685 3.62675688 -2.98968552 6.86894299 -4.96875 10.1953125 C-5.53980469 11.15824219 -6.11085938 12.12117188 -6.69921875 13.11328125 C-7.29347656 14.10714844 -7.88773437 15.10101563 -8.5 16.125 C-9.09425781 17.12660156 -9.68851562 18.12820313 -10.30078125 19.16015625 C-14.65382376 26.48073564 -14.65382376 26.48073564 -17 30 C-17.44584081 35.52842609 -17.39735321 38.42992026 -14 43 C-11.08755313 45.30270498 -11.08755313 45.30270498 -7.8125 47.3125 C-6.72582031 48.00988281 -5.63914062 48.70726562 -4.51953125 49.42578125 C-3.68808594 49.94527344 -2.85664062 50.46476562 -2 51 C-4 54 -6 57 -8 60 C-8.51026114 65.18765496 -8.4935327 67.92412899 -5.45831299 72.33561707 C-2.40863992 75.81623052 1.61869746 78.10434051 5.48828125 80.578125 C6.42367233 81.18960388 7.35906342 81.80108276 8.32279968 82.43109131 C11.31225978 84.38191217 14.31197668 86.31624899 17.3125 88.25 C19.2878276 89.53405204 21.26244433 90.81919835 23.23632812 92.10546875 C27.0582328 94.59507865 30.8844894 97.07779013 34.71337891 99.55664062 C40.03686918 103.01126006 45.31734089 106.52830827 50.55793762 110.10748291 C53.04038052 111.78571957 55.13762954 113.04587651 58 114 C64.76683393 111.29482131 70.93510783 106.49236213 76.93359375 102.4140625 C77.85157242 101.79405365 78.76955109 101.1740448 79.71534729 100.5352478 C82.62508152 98.56861338 85.53126619 96.59680244 88.4375 94.625 C90.38324657 93.30957483 92.32920833 91.99446791 94.27539062 90.6796875 C96.1616481 89.40392636 98.04772187 88.12789356 99.93359375 86.8515625 C100.79431992 86.26903717 101.65504608 85.68651184 102.54185486 85.08633423 C104.200138 83.96110619 105.85640058 82.8328937 107.51046753 81.70147705 C109.25005079 80.51255462 110.99526226 79.33184402 112.74465942 78.15740967 C113.63466644 77.551651 114.52467346 76.94589233 115.44165039 76.32177734 C116.24413712 75.78032074 117.04662384 75.23886414 117.87342834 74.68099976 C121.24348106 72.01706047 122.76639414 69.82540738 123.9375 65.6875 C124.04248774 59.49322334 120.62073813 55.77562874 117 51 C118.24716797 50.20335937 118.24716797 50.20335937 119.51953125 49.390625 C120.60621094 48.68421875 121.69289062 47.9778125 122.8125 47.25 C123.89144531 46.55390625 124.97039062 45.8578125 126.08203125 45.140625 C129.82200252 42.39697807 131.52216758 40.58770681 132.859375 36.14453125 C133.0360315 32.19429556 132.07619436 30.18491351 130.25 26.6875 C129.94505615 26.09936523 129.6401123 25.51123047 129.32592773 24.90527344 C126.11124397 18.87862281 122.36464614 13.17595499 118.55761719 7.51049805 C118.09645508 6.82125244 117.63529297 6.13200684 117.16015625 5.421875 C116.53572632 4.50293457 116.53572632 4.50293457 115.89868164 3.56542969 C115 2 115 2 115 0 C127.96534305 1.96089838 139.85984181 7.17304732 151 14 C151.66962265 14.30943039 152.3392453 14.61886078 153.02915955 14.93766785 C155.62288568 16.38498039 157.18456477 17.6285722 159 20 C160.16600614 25.33753596 159.97441908 30.62687207 159.859375 36.0546875 C159.85673382 37.64120326 159.85820375 39.22773068 159.86358643 40.8142395 C159.86935533 44.9842257 159.83097782 49.15251037 159.77972412 53.32214355 C159.70212 59.98717411 159.67827246 66.65207484 159.6798172 73.3175087 C159.67202315 75.6356244 159.63723939 77.95219247 159.59954834 80.26998901 C159.53293536 87.81580925 159.60444942 93.65779196 164 100 C168.78882193 103.81151133 172.51426874 105.09312106 178.54296875 105.31640625 C179.51000732 105.35451416 180.4770459 105.39262207 181.47338867 105.43188477 C182.69904541 105.47498779 183.92470215 105.51809082 185.1875 105.5625 C189.085625 105.706875 192.98375 105.85125 197 106 C197 116.89 197 127.78 197 139 C104.93 139 12.86 139 -82 139 C-82 80.13092417 -82 80.13092417 -76.1875 65.0625 C-75.92888184 64.36560059 -75.67026367 63.66870117 -75.40380859 62.95068359 C-65.98552797 38.28973438 -46.94870065 18.07576175 -23.10205078 6.90820312 C-7.11290323 0 -7.11290323 0 0 0 Z M-57 98 C-57.58345476 100.95746492 -57.58345476 100.95746492 -57 104 C-54.60895068 106.53121939 -53.15766713 106.98161013 -49.671875 107.38818359 C-48.37765625 107.39156738 -47.0834375 107.39495117 -45.75 107.3984375 C-45.05487305 107.40130768 -44.35974609 107.40417786 -43.64355469 107.40713501 C-42.17772606 107.40917134 -40.71186999 107.40367156 -39.24609375 107.39111328 C-37.00719223 107.3750516 -34.77009563 107.39097458 -32.53125 107.41015625 C-31.1041627 107.40817374 -29.67707651 107.4043299 -28.25 107.3984375 C-26.95578125 107.39505371 -25.6615625 107.39166992 -24.328125 107.38818359 C-20.86732361 106.98452498 -19.48406727 106.36880278 -17 104 C-17.25561323 101.6568787 -17.59270772 99.32156597 -18 97 C-21.03656859 95.48171571 -24.19605268 95.83715179 -27.52734375 95.83203125 C-28.64442467 95.82703865 -28.64442467 95.82703865 -29.78407288 95.82194519 C-31.36019269 95.81687974 -32.93632323 95.81453675 -34.51245117 95.81469727 C-36.9244961 95.81251178 -39.33608297 95.79435532 -41.74804688 95.77539062 C-43.27864427 95.77245643 -44.80924383 95.77047181 -46.33984375 95.76953125 C-47.06179428 95.76234573 -47.78374481 95.75516022 -48.52757263 95.74775696 C-52.24243462 95.76471372 -53.82488256 95.88325504 -57 98 Z " fill="#000000" transform="translate(108,313)"/>
<path d="M0 0 C3.70845581 2.56739249 6.40194705 4.76029884 8 9 C8.26742554 12.05101013 8.26742554 12.05101013 8.29052734 15.67358398 C8.29724457 16.33603622 8.30396179 16.99848846 8.31088257 17.68101501 C8.32986184 19.86945132 8.33378823 22.05758025 8.3359375 24.24609375 C8.34237106 25.77865217 8.34909984 27.31120937 8.35610962 28.84376526 C8.36808618 32.06083006 8.37179062 35.27778753 8.37060547 38.49487305 C8.37040353 42.58318596 8.39757246 46.67079387 8.43214989 50.7589407 C8.45459412 53.92919456 8.45843753 57.09928434 8.45738602 60.26960945 C8.45972086 61.77444931 8.46842258 63.27929519 8.48405075 64.78405571 C8.60702165 77.86071456 7.15622585 89.98088376 -2 100 C-2.763125 100.86625 -3.52625 101.7325 -4.3125 102.625 C-14.58485105 111.70289163 -24.81443978 115.12698676 -38.4765625 115.203125 C-39.68631241 115.21167511 -39.68631241 115.21167511 -40.92050171 115.22039795 C-42.6232575 115.22980964 -44.32603119 115.23636662 -46.02880859 115.24023438 C-48.59636428 115.24989229 -51.16310208 115.28093199 -53.73046875 115.3125 C-70.17343519 115.4180456 -83.38775632 113.04386386 -95.66796875 101.48046875 C-105.45872997 91.06651 -107.4833043 78.4463395 -107.36328125 64.59375 C-107.36377975 63.46602173 -107.36427826 62.33829346 -107.36479187 61.1763916 C-107.36247008 58.81679502 -107.35285511 56.45719506 -107.33618164 54.09765625 C-107.31237854 50.48154771 -107.31566142 46.86616813 -107.32226562 43.25 C-107.31669464 40.94791227 -107.30958843 38.64582763 -107.30078125 36.34375 C-107.30169266 35.26460327 -107.30260406 34.18545654 -107.30354309 33.0736084 C-107.29401108 32.07156372 -107.28447906 31.06951904 -107.2746582 30.03710938 C-107.27005081 29.15841187 -107.26544342 28.27971436 -107.26069641 27.37438965 C-106.97775331 24.79738003 -106.3732438 23.18783441 -105 21 C-100.37609153 18.06627234 -95.10751727 18.96790302 -89.8671875 19.21875 C-60.56798819 20.08387434 -38.05015241 16.36225177 -11.93330383 2.71861267 C-7.80779244 0.60701136 -4.75608964 -0.67968798 0 0 Z " fill="#000000" transform="translate(215,160)"/>
<path d="M0 0 C1.85578171 -0.00786278 1.85578171 -0.00786278 3.74905396 -0.0158844 C6.34913385 -0.02226784 8.94924278 -0.02101574 11.54931641 -0.01245117 C15.49044076 -0.00394375 19.43011208 -0.03275425 23.37109375 -0.06445312 C25.91406207 -0.0660657 28.45703292 -0.06548652 31 -0.0625 C32.73816483 -0.07935097 32.73816483 -0.07935097 34.51144409 -0.09654236 C51.9095194 0.04899757 66.56427939 6.39901644 78.90234375 18.51171875 C92.46702668 33.02728789 96.02740359 50.38680617 95.7578125 69.62109375 C95.74878906 70.85923828 95.73976562 72.09738281 95.73046875 73.37304688 C95.70714622 76.39331454 95.67128527 79.41348108 95.6328125 82.43359375 C91.6728125 82.43359375 87.7128125 82.43359375 83.6328125 82.43359375 C83.61863281 81.39460938 83.60445312 80.355625 83.58984375 79.28515625 C83.32372324 69.81172093 82.56738293 61.93178644 75.95703125 54.56640625 C71.58360841 50.51298996 67.47897156 48.64793684 61.47851562 48.19604492 C56.82412301 48.48354645 53.35623762 49.80443477 49.1015625 51.609375 C48.30681519 51.93520065 47.51206787 52.26102631 46.6932373 52.59672546 C44.1682052 53.63510726 41.6506062 54.69029925 39.1328125 55.74609375 C37.44186538 56.44447208 35.75046272 57.14174852 34.05859375 57.83789062 C30.94053569 59.12393457 27.82465946 60.41487259 24.71289062 61.71606445 C24.01676666 62.0027298 23.3206427 62.28939514 22.60342407 62.58474731 C20.8002518 63.36146881 19.0426784 64.24190998 17.29248047 65.1315918 C12.31468532 66.90254453 7.79108574 66.85557056 2.546875 66.83984375 C1.49051849 66.85067993 0.43416199 66.86151611 -0.65420532 66.87268066 C-4.01692869 66.90681841 -7.37931399 66.92250629 -10.7421875 66.93359375 C-15.16698841 66.94822855 -19.59104335 66.98203814 -24.015625 67.02734375 C-25.01902924 67.02432251 -26.02243347 67.02130127 -27.0562439 67.01818848 C-34.55367177 67.0973403 -41.21261898 67.964801 -47.2421875 72.68359375 C-49.6972006 75.86066953 -50.9699301 78.68306074 -52.3671875 82.43359375 C-56.3271875 82.43359375 -60.2871875 82.43359375 -64.3671875 82.43359375 C-65.58978308 41.08353032 -65.58978308 41.08353032 -52.3671875 23.43359375 C-51.90699219 22.79164062 -51.44679688 22.1496875 -50.97265625 21.48828125 C-38.63386435 5.62920002 -19.21570564 -0.04851148 0 0 Z " fill="#000000" transform="translate(150.3671875,101.56640625)"/>
<path d="M0 0 C16.83 0 33.66 0 51 0 C53.97 5.445 53.97 5.445 57 11 C58.18029785 12.31000977 59.3605957 13.62001953 60.57666016 14.96972656 C62.46622514 17.41331754 63.03448441 18.42898644 62.84637451 21.54382324 C62.02394802 24.63294392 60.96084527 27.51621344 59.7734375 30.484375 C59.36395874 31.59822067 58.95447998 32.71206635 58.53259277 33.85966492 C57.18307719 37.50455798 55.77985507 41.12611856 54.375 44.75 C53.43521816 47.25528837 52.49861415 49.76150462 51.56689453 52.26977539 C49.90402735 56.73518254 48.22761927 61.19503869 46.53312492 65.64854145 C43.6536868 73.21814215 40.87494358 80.82036383 38.15625 88.44921875 C37.60380112 89.99529312 37.60380112 89.99529312 37.04019165 91.57260132 C35.64195203 95.48618513 34.24445064 99.40002785 32.85028076 103.31506348 C31.90483786 105.96142408 30.94994494 108.60416965 29.9921875 111.24609375 C29.57785461 112.4153968 29.57785461 112.4153968 29.15515137 113.60832214 C27.22867293 118.88566354 27.22867293 118.88566354 25 120 C22.70673942 113.7089133 20.415274 107.41717458 18.125 101.125 C17.77451599 100.16214081 17.42403198 99.19928162 17.06292725 98.20724487 C10.25022384 79.48531626 3.4964799 60.7423942 -3.23388672 41.99072266 C-3.60473389 40.95851089 -3.97558105 39.92629913 -4.35766602 38.86280823 C-5.05179608 36.93074241 -5.7452026 34.99841643 -6.43774414 33.06578064 C-7.64896776 29.69555565 -8.85517246 26.34741983 -10.23339844 23.04125977 C-11.27170016 20.27653342 -10.94313741 18.77652602 -10 16 C-8.4765625 13.7890625 -8.4765625 13.7890625 -6.625 11.625 C-3.26661959 7.69498037 -2.2065758 5.14867686 0 0 Z " fill="#000000" transform="translate(140,285)"/>
<path d="M0 0 C68.31 0 136.62 0 207 0 C207 4.29 207 8.58 207 13 C202.98046567 17.01953433 202.53967795 17.4566575 197.29387331 17.53497362 C196.15399501 17.52158929 196.15399501 17.52158929 194.99108887 17.50793457 C194.17786651 17.51417453 193.36464416 17.5204145 192.5267787 17.52684355 C189.79815766 17.54281548 187.07042475 17.53015313 184.34179688 17.51757812 C182.38712543 17.52299738 180.43245806 17.53011893 178.47779846 17.53881836 C173.16585112 17.55707794 167.854214 17.54997325 162.54226112 17.53730202 C156.98808571 17.52718803 151.43393718 17.53656324 145.87976074 17.54284668 C136.55179059 17.55012775 127.22394704 17.54052329 117.89599609 17.52148438 C107.10545376 17.49971481 96.31521372 17.50676585 85.52467871 17.52879 C76.26683635 17.54693087 67.0090851 17.54950873 57.75123072 17.53903532 C52.218986 17.53279319 46.68688346 17.53198457 41.15464783 17.54518127 C35.95400247 17.55672002 30.75374755 17.5487501 25.55314445 17.52560425 C23.64233486 17.5203066 21.73149252 17.52184891 19.82069588 17.53065491 C17.21632119 17.54155241 14.61320516 17.52791766 12.00891113 17.50793457 C11.24899227 17.51685746 10.4890734 17.52578034 9.70612669 17.53497362 C4.46032205 17.4566575 4.01953433 17.01953433 0 13 C0 8.71 0 4.42 0 0 Z " fill="#000000" transform="translate(278,391)"/>
<path d="M0 0 C0.92318024 -0.00428513 1.84636047 -0.00857025 2.79751587 -0.01298523 C4.74228092 -0.01870458 6.68706735 -0.01924654 8.63183594 -0.01489258 C11.58566297 -0.01173574 14.53848422 -0.03521115 17.4921875 -0.06054688 C19.39062375 -0.06282063 21.28906266 -0.06352301 23.1875 -0.0625 C24.49574234 -0.07631462 24.49574234 -0.07631462 25.83041382 -0.09040833 C32.98120433 -0.03723285 39.42730452 1.04920418 45.1015625 5.61328125 C49.682376 11.40666303 51.04155399 16.03266043 50.2265625 23.30078125 C49.2265625 26.36328125 49.2265625 26.36328125 48.2265625 28.30078125 C47.34750244 28.13852051 46.46844238 27.97625977 45.56274414 27.80908203 C39.6903865 26.97653363 33.76581926 27.15827329 27.84765625 27.16796875 C26.56222427 27.16701202 25.2767923 27.1660553 23.95240784 27.16506958 C21.24177844 27.16360157 18.53118217 27.16571854 15.82055664 27.17041016 C12.35854429 27.17611263 8.8966094 27.17281947 5.43459988 27.16683769 C2.1139459 27.16234199 -1.20668758 27.1654954 -4.52734375 27.16796875 C-6.38378258 27.1649324 -6.38378258 27.1649324 -8.27772522 27.16183472 C-10.01499123 27.16656296 -10.01499123 27.16656296 -11.78735352 27.17138672 C-13.30789085 27.17258011 -13.30789085 27.17258011 -14.85914612 27.17379761 C-17.89968829 27.30628234 -20.78446175 27.74084656 -23.7734375 28.30078125 C-26.62823556 24.01858416 -27.1968754 19.99621388 -26.41015625 14.98828125 C-25.0138766 9.9171306 -22.89844589 6.84810969 -18.8828125 3.4921875 C-12.87435548 0.09852196 -6.7236113 -0.0069937 0 0 Z " fill="#000000" transform="translate(153.7734375,64.69921875)"/>
<path d="M0 0 C0.66 0 1.32 0 2 0 C3.32519531 1.87670898 3.32519531 1.87670898 4.828125 4.49609375 C5.65763672 5.92405273 5.65763672 5.92405273 6.50390625 7.38085938 C7.08011719 8.38955078 7.65632813 9.39824219 8.25 10.4375 C12.28842948 17.45137005 16.40997149 24.33070108 21 31 C19.63963859 34.26288649 18.4125121 35.6805736 15.33984375 37.40234375 C14.62892578 37.81806641 13.91800781 38.23378906 13.18554688 38.66210938 C11.68556323 39.51309923 10.18294026 40.35945346 8.67773438 41.20117188 C4.44164986 43.611189 4.44164986 43.611189 1.80078125 47.55859375 C2.06112449 50.74907468 3.04367359 51.83795433 5.25 54.125 C5.87390625 54.78757812 6.4978125 55.45015625 7.140625 56.1328125 C7.75421875 56.74898438 8.3678125 57.36515625 9 58 C9.57234375 58.57492187 10.1446875 59.14984375 10.734375 59.7421875 C11.36085938 60.36480469 11.36085938 60.36480469 12 61 C10.59283249 64.39694574 9.0986784 65.92748975 6.04101562 67.93261719 C5.22677124 68.47287537 4.41252686 69.01313354 3.5736084 69.56976318 C2.69338013 70.13971008 1.81315186 70.70965698 0.90625 71.296875 C0.0037854 71.89050842 -0.8986792 72.48414185 -1.82849121 73.09576416 C-3.73545749 74.34741429 -5.64541226 75.59452137 -7.55810547 76.83740234 C-10.4950948 78.74681101 -13.42198076 80.67096792 -16.34765625 82.59765625 C-18.19994475 83.8107759 -20.05279062 85.02304502 -21.90625 86.234375 C-22.78647827 86.81241882 -23.66670654 87.39046265 -24.5736084 87.98602295 C-25.38785278 88.51367249 -26.20209717 89.04132202 -27.04101562 89.58496094 C-28.11784607 90.28634186 -28.11784607 90.28634186 -29.21643066 91.00189209 C-31 92 -31 92 -33 92 C-30.66059761 83.75724556 -27.82706313 75.71364135 -24.921875 67.65625 C-24.42710532 66.27882577 -23.9325002 64.90134241 -23.43804932 63.52380371 C-22.40423703 60.64546646 -21.368576 57.76780337 -20.33154297 54.890625 C-19.0227385 51.25903831 -17.71837397 47.62587615 -16.41529083 43.99223328 C-11.12852933 29.25544773 -5.81636792 14.5383799 0 0 Z " fill="#000000" transform="translate(210,315)"/>
<path d="M0 0 C0.66 0 1.32 0 2 0 C2.23866287 0.67253815 2.47732574 1.34507629 2.72322083 2.03799438 C5.50678309 9.88082818 8.29274899 17.72280624 11.08008194 25.56430054 C11.80871163 27.61434121 12.5371046 29.66446588 13.26547241 31.71459961 C19.9771473 50.63134457 19.9771473 50.63134457 26.84375 69.4921875 C27.10991623 70.21306549 27.37608246 70.93394348 27.65031433 71.67666626 C28.80918611 74.80823563 29.97674886 77.93614308 31.15356445 81.06103516 C31.5424585 82.10308105 31.93135254 83.14512695 32.33203125 84.21875 C32.65921143 85.08435547 32.9863916 85.94996094 33.32348633 86.84179688 C34 89 34 89 34 92 C28.77042679 90.29219586 24.49902483 87.16714616 19.98046875 84.1171875 C19.12189774 83.54292023 18.26332672 82.96865295 17.3787384 82.37698364 C14.64539927 80.5473124 11.9164172 78.71125827 9.1875 76.875 C7.33166417 75.63108666 5.47554752 74.38759218 3.61914062 73.14453125 C-0.92383896 70.10120139 -5.46326101 67.05262391 -10 64 C-9.19970573 60.11234828 -7.76527039 58.49532139 -4.9375 55.6875 C-1.34467072 51.89076832 -1.34467072 51.89076832 -0.5 46.9375 C-0.665 45.968125 -0.83 44.99875 -1 44 C-1.68449219 43.75507813 -2.36898437 43.51015625 -3.07421875 43.2578125 C-6.52927929 41.77245937 -9.6413857 39.87594838 -12.8125 37.875 C-13.40998047 37.50246094 -14.00746094 37.12992187 -14.62304688 36.74609375 C-16.08426251 35.8342952 -17.54244585 34.91764024 -19 34 C-18.43354165 29.5123911 -16.5693714 26.19472001 -14.21875 22.421875 C-13.84520386 21.80983215 -13.47165771 21.19778931 -13.08679199 20.56719971 C-11.8981147 18.62378993 -10.69907644 16.68700667 -9.5 14.75 C-8.6933585 13.43269064 -7.88736184 12.11498619 -7.08203125 10.796875 C-1.19935054 1.19935054 -1.19935054 1.19935054 0 0 Z " fill="#000000" transform="translate(120,315)"/>
<path d="M0 0 C7.26 0 14.52 0 22 0 C22.515625 1.8975 23.03125 3.795 23.5625 5.75 C26.80855493 16.2910759 32.40691384 24.20921845 39 33 C20.52 33 2.04 33 -17 33 C-15.38466646 29.76933291 -13.81548052 27.30154473 -11.6875 24.4375 C-6.30222961 16.83542392 -3.26125455 8.6966788 0 0 Z " fill="#000000" transform="translate(371,419)"/>
<path d="M0 0 C13 0 13 0 17 3 C20.34742972 8.16529227 20.4578001 12.61469264 20.375 18.5625 C20.38660156 19.39974609 20.39820313 20.23699219 20.41015625 21.09960938 C20.38748599 25.87169945 20.14881357 29.17440523 17 33 C13 36 13 36 0 36 C0 24.12 0 12.24 0 0 Z " fill="#000000" transform="translate(234,195)"/>
<path d="M0 0 C0 11.88 0 23.76 0 36 C-13 36 -13 36 -18 32 C-19.98302791 28.03394419 -19.31628077 23.11123757 -19.375 18.75 C-19.41238281 17.71230469 -19.44976562 16.67460937 -19.48828125 15.60546875 C-19.58720562 6.99904891 -19.58720562 6.99904891 -16.6640625 3.328125 C-11.10243236 -1.53218521 -8.49697932 0 0 0 Z " fill="#000000" transform="translate(97,195)"/>
<path d="M0 0 C3.23547321 1.82659101 5.46675491 4.14217094 7.4375 7.3125 C8.60262026 12.8791857 7.83246059 16.63779176 4.9375 21.375 C1.3846764 24.54986364 -1.27295089 25.7118751 -6 26 C-10.56241025 25.3813681 -12.50314215 24.46445408 -15.875 21.3125 C-18.27695055 17.56828297 -19 15.43786768 -19 11 C-17.41574474 5.80716332 -15.55648317 2.96171406 -11 0 C-7.1289632 -1.2903456 -3.87801709 -1.07030339 0 0 Z " fill="#000000" transform="translate(387,310)"/>
</svg>
